<mxfile host="app.diagrams.net" modified="2021-04-05T12:09:49.225Z" agent="5.0 (Windows NT 10.0; Win64; x64) AppleWebKit/537.36 (KHTML, like Gecko) Chrome/89.0.4389.114 Safari/537.36" etag="AqKN4sZ3XjZB480IqY54" version="14.5.7" type="github">
  <diagram id="bHzi_ambgMTMRVsqIDpd" name="Page-1">
    <mxGraphModel dx="1422" dy="762" grid="1" gridSize="10" guides="1" tooltips="1" connect="1" arrows="1" fold="1" page="1" pageScale="1" pageWidth="827" pageHeight="1169" math="0" shadow="0">
      <root>
        <mxCell id="0" />
        <mxCell id="1" parent="0" />
        <mxCell id="4Noo1hTe9u79b6L2qV_j-1" value="" style="rounded=0;whiteSpace=wrap;html=1;" vertex="1" parent="1">
          <mxGeometry x="30" y="80" width="770" height="540" as="geometry" />
        </mxCell>
        <mxCell id="4Noo1hTe9u79b6L2qV_j-2" value="流量接入层" style="text;html=1;align=center;verticalAlign=middle;resizable=0;points=[];autosize=1;fontSize=26;" vertex="1" parent="1">
          <mxGeometry x="330" y="90" width="150" height="40" as="geometry" />
        </mxCell>
      </root>
    </mxGraphModel>
  </diagram>
</mxfile>
